<svg xmlns="http://www.w3.org/2000/svg" width="56" height="97" viewBox="0 0 56 97">
  <path fill="none" stroke="#eeeeee" stroke-width="0.5" stroke-linecap="square" stroke-linejoin="miter" vector-effect="non-scaling-stroke" d="M28.0 0.0L31.175 2.584L35.0 4.042L38.175 6.625L42.0 8.083L45.175 10.667L49.0 12.125L52.175 14.709L56.0 16.167 M56.0 16.167L55.35 20.208L56.0 24.25L55.35 28.292L56.0 32.333L55.35 36.375L56.0 40.417L55.35 44.458L56.0 48.5 M56.0 48.5L52.175 49.958L49.0 52.542L45.175 54.0L42.0 56.583L38.175 58.041L35.0 60.625L31.175 62.083L28.0 64.667 M28.0 64.667L24.825 62.083L21.0 60.625L17.825 58.041L14.0 56.583L10.825 54.0L7.0 52.542L3.825 49.958L0.0 48.5 M0.0 48.5L0.65 44.458L0.0 40.417L0.65 36.375L0.0 32.333L0.65 28.292L0.0 24.25L0.65 20.208L0.0 16.167 M0.0 16.167L3.825 14.709L7.0 12.125L10.825 10.667L14.0 8.083L17.825 6.625L21.0 4.042L24.825 2.584L28.0 0.0 M28.0 32.333L28.5 29.1L28.0 25.867L28.5 22.633L28.0 19.4L28.5 16.167L28.0 12.933L28.5 9.7L28.0 6.467L28.5 3.233L28.0 0.0 M28.0 32.333L30.55 30.284L33.6 29.1L36.15 27.05L39.2 25.867L41.75 23.817L44.8 22.633L47.35 20.584L50.4 19.4L52.95 17.35L56.0 16.167 M28.0 32.333L31.05 33.517L33.6 35.567L36.65 36.75L39.2 38.8L42.25 39.984L44.8 42.033L47.85 43.217L50.4 45.267L53.45 46.45L56.0 48.5 M28.0 32.333L27.5 35.567L28.0 38.8L27.5 42.033L28.0 45.267L27.5 48.5L28.0 51.733L27.5 54.967L28.0 58.2L27.5 61.433L28.0 64.667 M28.0 32.333L24.95 33.517L22.4 35.567L19.35 36.75L16.8 38.8L13.75 39.984L11.2 42.033L8.15 43.217L5.6 45.267L2.55 46.45L0.0 48.5 M28.0 32.333L25.45 30.284L22.4 29.1L19.85 27.05L16.8 25.867L14.25 23.817L11.2 22.633L8.65 20.584L5.6 19.4L3.05 17.35L0.0 16.167 M28.0 0.0L30.324 5.125L33.6 9.7L35.924 14.825L39.2 19.4L41.524 24.525L44.8 29.1L47.124 34.225L50.4 38.8L52.724 43.925L56.0 48.5 M56.0 48.5L50.4 47.95L44.8 48.5L39.2 47.95L33.6 48.5L28.0 47.95L22.4 48.5L16.8 47.95L11.2 48.5L5.6 47.95L0.0 48.5 M0.0 48.5L3.276 43.925L5.6 38.8L8.876 34.225L11.2 29.1L14.476 24.525L16.8 19.4L20.076 14.825L22.4 9.7L25.676 5.125L28.0 0.0 M56.0 16.167L52.724 20.742L50.4 25.867L47.124 30.442L44.8 35.567L41.524 40.142L39.2 45.267L35.924 49.842L33.6 54.967L30.324 59.542L28.0 64.667 M28.0 64.667L25.676 59.542L22.4 54.967L20.076 49.842L16.8 45.267L14.476 40.142L11.2 35.567L8.876 30.442L5.6 25.867L3.276 20.742L0.0 16.167 M0.0 16.167L5.6 16.717L11.2 16.167L16.8 16.717L22.4 16.167L28.0 16.717L33.6 16.167L39.2 16.717L44.8 16.167L50.4 16.717L56.0 16.167 M28.0 64.667L32.917 66.928L37.333 70.056L42.25 72.317L46.667 75.445L51.583 77.706L56.0 80.834 M56.0 80.834L55.5 83.528L56.0 86.223L55.5 88.917L56.0 91.611L55.5 94.306L56.0 97.0 M56.0 97.0L46.667 96.5L37.333 97.0L28.0 96.5L18.667 97.0L9.333 96.5L0.0 97.0 M0.0 97.0L0.5 94.306L0.0 91.611L0.5 88.917L0.0 86.223L0.5 83.528L0.0 80.834 M0.0 80.834L4.417 77.706L9.333 75.445L13.75 72.317L18.667 70.056L23.083 66.928L28.0 64.667 M28.0 64.667L27.6 68.709L28.0 72.75L27.6 76.792L28.0 80.834L27.6 84.875L28.0 88.917L27.6 92.958L28.0 97.0"/>
</svg>
